<?xml version="1.0" standalone="no"?>
<!DOCTYPE svg PUBLIC "-//W3C//DTD SVG 20010904//EN"
 "http://www.w3.org/TR/2001/REC-SVG-20010904/DTD/svg10.dtd">
<svg version="1.0" xmlns="http://www.w3.org/2000/svg"
 width="192.000000pt" height="192.000000pt" viewBox="0 0 192.000000 192.000000"
 preserveAspectRatio="xMidYMid meet">
<metadata>
Created by potrace 1.11, written by Peter Selinger 2001-2013
</metadata>
<g transform="translate(0.000000,192.000000) scale(0.100000,-0.100000)"
fill="#000000" stroke="none">
<path d="M907 1904 c-1 -1 -29 -4 -62 -7 -33 -4 -91 -16 -130 -27 -38 -11 -77
-22 -87 -24 -28 -7 -140 -66 -198 -103 -114 -75 -246 -227 -313 -360 -146
-290 -133 -632 36 -915 95 -158 231 -281 403 -364 86 -41 147 -60 256 -79 92
-16 266 -14 343 5 28 6 55 13 60 14 6 1 15 4 20 7 6 4 22 9 38 13 47 11 138
57 216 109 175 116 312 298 375 495 35 113 41 151 40 302 0 159 -21 255 -85
389 -158 334 -474 537 -847 546 -34 1 -63 0 -65 -1z m-114 -462 c41 -107 44
-122 22 -122 -12 0 -54 64 -52 80 0 3 -10 27 -21 54 -27 59 -28 86 -4 86 12 0
27 -26 55 -98z m200 61 c9 -30 4 -143 -5 -149 -22 -14 -34 17 -32 83 1 37 2
71 3 76 2 15 30 7 34 -10z m257 0 c0 -21 -59 -152 -78 -175 -8 -10 -19 -18
-24 -18 -16 0 -8 36 29 122 27 62 43 88 56 88 9 0 17 -7 17 -17z m180 -163 c0
-11 -3 -20 -7 -20 -5 0 -28 -20 -53 -43 -58 -56 -86 -72 -93 -52 -7 17 111
135 136 135 10 0 17 -8 17 -20z m-806 -54 c53 -49 65 -76 33 -76 -20 0 -126
104 -120 118 9 22 27 13 87 -42z m430 -7 c125 -28 216 -117 255 -245 18 -63
20 -169 2 -187 -6 -6 -11 -17 -11 -24 0 -20 -43 -83 -57 -83 -21 0 -19 22 10
81 34 70 37 138 12 214 -36 105 -102 169 -205 199 -147 42 -307 -37 -367 -181
-41 -101 -11 -245 69 -325 59 -58 120 -81 218 -82 93 0 114 3 208 33 141 46
163 9 46 -76 l-29 -22 57 20 c109 36 117 -2 18 -85 -38 -32 -38 -32 34 2 27
13 64 26 82 29 31 5 34 4 27 -13 -3 -11 -31 -45 -62 -77 -49 -52 -56 -56 -70
-42 -14 14 -13 18 14 40 26 21 17 19 -63 -15 -96 -41 -132 -49 -132 -27 0 20
12 32 83 86 74 55 74 61 0 32 -85 -33 -121 -41 -133 -27 -14 18 10 43 84 90
32 20 57 39 55 41 -2 1 -38 -6 -79 -17 -196 -52 -376 14 -450 166 -30 63 -34
82 -34 171 0 68 4 89 28 135 75 149 233 226 390 189z m526 -79 c0 -14 -24 -27
-120 -68 -52 -22 -99 -37 -103 -33 -18 18 9 38 100 78 88 37 123 44 123 23z
m-1095 -70 c98 -33 115 -44 97 -62 -16 -16 -216 52 -220 75 -5 24 21 22 123
-13z m579 -73 c27 4 41 2 47 -8 15 -24 10 -31 -20 -24 -17 3 -32 2 -36 -4 -4
-8 -12 -8 -26 0 -15 7 -24 7 -35 -1 -7 -7 -23 -10 -34 -7 -16 4 -23 -1 -30
-19 -5 -13 -16 -24 -25 -24 -8 0 -15 -8 -15 -18 0 -11 -9 -27 -20 -37 -11 -10
-20 -24 -20 -32 0 -7 -7 -13 -15 -13 -23 0 -19 48 5 62 11 7 20 23 20 35 0 13
8 24 20 28 11 3 20 10 20 15 0 16 33 41 47 36 8 -3 24 1 36 9 13 9 25 11 32 5
6 -5 28 -7 49 -3z m535 -41 c19 -22 -7 -34 -93 -41 -44 -3 -83 -8 -86 -10 -4
-3 -15 1 -24 8 -29 21 0 35 89 42 44 4 82 9 84 11 8 7 19 4 30 -10z m-495 -96
c3 -25 7 -52 9 -60 13 -52 21 -76 29 -87 6 -7 7 -21 3 -30 -6 -17 -7 -17 -21
2 -31 42 -63 196 -49 233 5 15 7 15 15 2 4 -8 10 -35 14 -60z m-546 16 c10 -6
10 -11 2 -21 -7 -9 -37 -14 -88 -14 -42 -1 -89 -3 -104 -5 -33 -4 -53 7 -45
26 3 10 24 15 68 17 35 1 65 3 66 5 6 6 89 0 101 -8z m478 -160 c24 -26 44
-54 44 -62 0 -25 -25 -14 -48 21 -12 20 -49 56 -82 82 -33 25 -60 49 -60 53 0
33 76 -16 146 -94z m436 68 c44 -13 58 -21 56 -33 -4 -19 -27 -20 -88 -3 -56
15 -75 26 -66 41 10 15 29 14 98 -5z m-868 -86 c-9 -13 -167 -87 -176 -82 -4
3 -8 12 -8 20 0 22 160 96 177 82 7 -6 10 -14 7 -20z m86 -112 c0 -15 -153
-166 -168 -166 -33 0 -16 30 58 105 76 77 110 95 110 61z m170 -109 c0 -24
-41 -142 -54 -155 -10 -11 -15 -11 -23 0 -7 9 -3 36 15 91 19 59 29 77 43 77
11 0 19 -6 19 -13z"/>
</g>
</svg>
